<svg width="30" height="30" viewBox="0 0 30 30" fill="none" xmlns="http://www.w3.org/2000/svg">
<g clip-path="url(#clip0_20_25)">
<path d="M17.6413 1.28661C18.7798 2.11909 19.3552 3.54533 19.3552 5.51024L19.3552 10.1746L25.8192 10.1746C28.1208 10.1746 30 12.0477 30 14.3554L30 14.4839C30 14.5206 29.9939 14.5635 29.9878 14.6002L28.2677 25.4041C27.9494 27.9995 26.1375 29.4931 23.3034 29.4931L10.4979 29.4931C8.19628 29.4931 6.31707 27.62 6.31707 25.3123L6.31708 13.3086C6.31708 12.9475 6.02326 12.6537 5.66211 12.6537L2.15466 12.6537C1.79351 12.6537 1.49969 12.9475 1.49969 13.3086L1.49969 26.0346C1.49969 26.3958 1.79351 26.6896 2.15466 26.6896L4.18077 26.6896C4.59702 26.6896 4.93368 27.0262 4.93368 27.4425C4.93368 27.8587 4.59702 28.1954 4.18077 28.1954L2.15466 28.1954C0.967145 28.1954 -6.57945e-06 27.2282 -6.37182e-06 26.0407L-4.14567e-06 13.3086C-3.93804e-06 12.1211 0.967148 11.154 2.15466 11.154L5.66211 11.154C6.50683 11.154 7.24138 11.6437 7.59641 12.3537C7.64538 12.3231 7.70047 12.3048 7.76168 12.2864C7.96368 12.2313 12.7443 10.8296 12.7443 6.70387L12.7443 1.46412C12.7443 1.13358 12.9586 0.845882 13.2708 0.747942C13.3687 0.717336 15.8417 -0.0355707 17.6413 1.28661ZM8.15956 13.7249C8.04325 13.7555 7.92695 13.7616 7.81677 13.7371L7.81677 25.3123C7.81677 26.7875 9.01652 27.9934 10.4979 27.9934L14.5623 27.9934L23.3034 27.9934C25.3846 27.9934 26.5538 27.063 26.7864 25.196L28.5003 14.4227L28.5003 14.3554C28.5003 12.8802 27.3005 11.6743 25.8192 11.6743L18.6023 11.6743C18.1861 11.6743 17.8494 11.3376 17.8494 10.9214L17.8494 5.51024C17.8494 4.04727 17.4821 3.03727 16.7537 2.49861C15.9641 1.91097 14.8745 1.96606 14.2379 2.07012L14.2379 6.69775C14.2379 11.962 8.41053 13.6576 8.15956 13.7249Z" fill="#5BB318"/>
</g>
<defs>
<clipPath id="clip0_20_25">
<rect width="30" height="30" fill="white" transform="matrix(-1 -1.74846e-07 -1.74846e-07 1 30 0)"/>
</clipPath>
</defs>
</svg>
