<svg width="30" height="30" viewBox="0 0 30 30" fill="none" xmlns="http://www.w3.org/2000/svg">
<g clip-path="url(#clip0_20_5)">
<path d="M17.6413 28.7134C18.7798 27.8809 19.3552 26.4547 19.3552 24.4898L19.3552 19.8254L25.8192 19.8254C28.1208 19.8254 30 17.9523 30 15.6446L30 15.5161C30 15.4794 29.9939 15.4365 29.9878 15.3998L28.2677 4.59586C27.9494 2.00047 26.1375 0.506902 23.3034 0.506902L10.4979 0.506901C8.19629 0.506901 6.31708 2.37999 6.31708 4.68768L6.31708 16.6914C6.31708 17.0525 6.02326 17.3463 5.66211 17.3463L2.15466 17.3463C1.79351 17.3463 1.49969 17.0525 1.49969 16.6914L1.4997 3.96538C1.4997 3.60423 1.79351 3.31041 2.15466 3.31041L4.18078 3.31041C4.59702 3.31041 4.93369 2.97375 4.93369 2.5575C4.93369 2.14126 4.59702 1.80459 4.18078 1.80459L2.15466 1.80459C0.967152 1.80459 4.28701e-07 2.77174 3.24886e-07 3.95926L-7.8819e-07 16.6914C-8.92005e-07 17.8789 0.967151 18.846 2.15466 18.846L5.66211 18.846C6.50683 18.846 7.24138 18.3563 7.59641 17.6463C7.64538 17.6769 7.70047 17.6952 7.76168 17.7136C7.96368 17.7687 12.7443 19.1704 12.7443 23.2961L12.7443 28.5359C12.7443 28.8664 12.9586 29.1541 13.2708 29.2521C13.3687 29.2827 15.8417 30.0356 17.6413 28.7134ZM8.15956 16.2751C8.04326 16.2445 7.92696 16.2384 7.81677 16.2629L7.81677 4.68768C7.81677 3.21247 9.01653 2.0066 10.4979 2.0066L14.5623 2.0066L23.3034 2.0066C25.3846 2.0066 26.5538 2.93702 26.7864 4.80398L28.5003 15.5773L28.5003 15.6446C28.5003 17.1198 27.3006 18.3257 25.8192 18.3257L18.6023 18.3257C18.1861 18.3257 17.8494 18.6624 17.8494 19.0786L17.8494 24.4898C17.8494 25.9527 17.4821 26.9627 16.7537 27.5014C15.9641 28.089 14.8745 28.0339 14.2379 27.9299L14.2379 23.3022C14.2379 18.038 8.41053 16.3424 8.15956 16.2751Z" fill="#CF0A0A"/>
</g>
<defs>
<clipPath id="clip0_20_5">
<rect width="30" height="30" fill="white" transform="translate(30 30) rotate(-180)"/>
</clipPath>
</defs>
</svg>
